<svg width="15" height="15" viewBox="0 0 15 15" fill="none" xmlns="http://www.w3.org/2000/svg">
<path d="M7.50268 3.64819C5.37581 3.64819 3.65393 5.37194 3.65393 7.49694C3.65393 9.62382 5.37768 11.3457 7.50268 11.3457C9.62956 11.3457 11.3514 9.62194 11.3514 7.49694C11.3514 5.37007 9.62768 3.64819 7.50268 3.64819V3.64819ZM7.50268 9.99507C6.12206 9.99507 5.00456 8.87694 5.00456 7.49694C5.00456 6.11694 6.12268 4.99882 7.50268 4.99882C8.88268 4.99882 10.0008 6.11694 10.0008 7.49694C10.0014 8.87694 8.88331 9.99507 7.50268 9.99507V9.99507Z" fill="#EBEBEB"/>
<path d="M10.5926 0.0471167C9.21264 -0.0172583 5.79452 -0.0141333 4.41327 0.0471167C3.19952 0.103992 2.12889 0.397116 1.26577 1.26024C-0.176733 2.70274 0.00764204 4.64649 0.00764204 7.49712C0.00764204 10.4146 -0.154858 12.3134 1.26577 13.734C2.71389 15.1815 4.68577 14.9921 7.50264 14.9921C10.3926 14.9921 11.3901 14.994 12.412 14.5984C13.8014 14.059 14.8501 12.8171 14.9526 10.5865C15.0176 9.20586 15.0139 5.78837 14.9526 4.40712C14.8289 1.77399 13.4158 0.177117 10.5926 0.0471167V0.0471167ZM12.777 12.7796C11.8314 13.7252 10.5195 13.6409 7.48451 13.6409C4.35952 13.6409 3.10639 13.6871 2.19202 12.7702C1.13889 11.7221 1.32952 10.039 1.32952 7.48712C1.32952 4.03399 0.975142 1.54712 4.44077 1.36962C5.23702 1.34149 5.47139 1.33212 7.47576 1.33212L7.50389 1.35087C10.8345 1.35087 13.4476 1.00212 13.6045 4.46712C13.6401 5.25774 13.6483 5.49524 13.6483 7.49649C13.6476 10.5852 13.7064 11.8459 12.777 12.7796V12.7796Z" fill="#EBEBEB"/>
</svg>
