<svg width="18" height="14" viewBox="0 0 18 14" fill="none" xmlns="http://www.w3.org/2000/svg">
<path d="M15 0H3C1.35 0 0 1.35 0 3V10.5C0 12.15 1.35 13.5 3 13.5H15C16.65 13.5 18 12.15 18 10.5V3C18 1.35 16.65 0 15 0ZM16.2 4.35L10.275 8.325C9.9 8.55 9.45 8.7 9 8.7C8.55 8.7 8.1 8.55 7.725 8.325L1.8 4.35C1.5 4.125 1.425 3.675 1.65 3.3C1.875 3 2.325 2.925 2.7 3.15L8.625 7.125C8.85 7.275 9.225 7.275 9.45 7.125L15.375 3.15C15.75 2.925 16.2 3 16.425 3.375C16.575 3.675 16.5 4.125 16.2 4.35Z" fill="#EBEBEB"/>
</svg>
